<?xml version="1.0" encoding="UTF-8" standalone="no"?>
<svg
   xmlns:osb="http://www.openswatchbook.org/uri/2009/osb"
   xmlns:dc="http://purl.org/dc/elements/1.1/"
   xmlns:cc="http://creativecommons.org/ns#"
   xmlns:rdf="http://www.w3.org/1999/02/22-rdf-syntax-ns#"
   xmlns:svg="http://www.w3.org/2000/svg"
   xmlns="http://www.w3.org/2000/svg"
   xmlns:xlink="http://www.w3.org/1999/xlink"
   xmlns:sodipodi="http://sodipodi.sourceforge.net/DTD/sodipodi-0.dtd"
   xmlns:inkscape="http://www.inkscape.org/namespaces/inkscape"
   width="96"
   height="96"
   viewBox="0 0 96 96"
   fill="none"
   version="1.1"
   id="svg28"
   sodipodi:docname="app.svg"
   inkscape:version="1.0.2-2 (e86c870879, 2021-01-15)">
  <metadata
     id="metadata34">
    <rdf:RDF>
      <cc:Work
         rdf:about="">
        <dc:format>image/svg+xml</dc:format>
        <dc:type
           rdf:resource="http://purl.org/dc/dcmitype/StillImage" />
      </cc:Work>
    </rdf:RDF>
  </metadata>
  <defs
     id="defs32">
    <linearGradient
       inkscape:collect="always"
       xlink:href="#linearGradient864"
       id="linearGradient866"
       x1="8.5955896"
       y1="126.30413"
       x2="248.5956"
       y2="126.30413"
       gradientUnits="userSpaceOnUse"
       gradientTransform="matrix(0.0893793,0,0,0.0871949,22.380851,36.505867)" />
    <linearGradient
       id="linearGradient864"
       osb:paint="solid">
      <stop
         style="stop-color:#000000;stop-opacity:1;"
         offset="0"
         id="stop862" />
    </linearGradient>
  </defs>
  <sodipodi:namedview
     pagecolor="#ffffff"
     bordercolor="#666666"
     borderopacity="1"
     objecttolerance="10"
     gridtolerance="10"
     guidetolerance="10"
     inkscape:pageopacity="0"
     inkscape:pageshadow="2"
     inkscape:window-width="1858"
     inkscape:window-height="1057"
     id="namedview30"
     showgrid="false"
     inkscape:zoom="3.2740517"
     inkscape:cx="-60.769437"
     inkscape:cy="71.248322"
     inkscape:window-x="1072"
     inkscape:window-y="-8"
     inkscape:window-maximized="1"
     inkscape:current-layer="svg28"
     inkscape:document-rotation="0" />
  <!-- 背景方形，四角留白 -->
  <!-- 消息气泡（左侧） -->
  <g
     id="g8"
     transform="matrix(1.7714769,0,0,1.8158546,-11.112104,-50.612608)">
    <rect
       x="16"
       y="36"
       width="36"
       height="24"
       rx="10"
       fill="#e3f2fd"
       stroke="#2196f3"
       stroke-width="2"
       id="rect4" />
    <path
       id="path128"
       d="m 40.997469,37.056119 c -0.426689,-0.008 -0.657719,0.06597 -1.067396,0.336521 -0.324909,0.318391 -0.324909,0.318391 -0.674091,0.500525 -0.345172,0.188937 -0.644206,0.393263 -0.943732,0.640378 l -0.126888,0.353311 c -0.368013,0.133409 -0.606666,0.209258 -0.887225,0.474763 l -0.238906,0.290747 c -0.336695,0.407484 -0.659297,0.822586 -0.975454,1.243952 -0.285168,0.384384 -0.578417,0.758561 -0.888217,1.126181 -0.214218,0.251522 -0.426391,0.502796 -0.629978,0.761829 -0.25277,0.323596 -0.500043,0.632289 -0.803461,0.916863 -0.349597,0.310402 -0.619964,0.541818 -0.834686,0.949065 l -0.07137,0.242902 C 32.497321,44.78971 32.497289,44.789681 32.253844,44.679235 l -0.241881,-0.113169 -0.266911,-0.124441 -0.276824,-0.129962 c -0.180918,-0.08449 -0.361832,-0.168982 -0.542744,-0.253482 -0.254501,-0.1193 -0.509087,-0.238322 -0.764055,-0.356762 L 29.93764,43.597678 v -0.23554 c -0.46945,-0.334388 -0.791407,-0.593092 -1.070619,-1.082017 -0.171953,-0.304826 -0.34825,-0.602325 -0.539769,-0.897082 l -0.22949,-0.324788 -0.210157,-0.302248 c -0.233951,-0.22036 -0.233951,-0.22036 -0.563067,-0.267743 -0.305325,0.04738 -0.305325,0.04738 -0.559101,0.282924 -0.0706,0.453825 0.06007,0.782 0.270629,1.191047 l 0.117967,0.21484 c 0.251096,0.458845 0.490057,0.885578 0.919938,1.22187 0.267665,0.180376 0.512958,0.355101 0.756867,0.56401 0.545724,0.478506 1.086831,0.893191 1.725381,1.261434 0.445368,0.244041 0.829559,0.470624 1.157855,0.846477 -0.05867,0.562656 -0.164131,0.901326 -0.602719,1.295476 -0.374769,0.313479 -0.662853,0.644693 -0.959591,1.022671 -0.156434,0.199307 -0.315407,0.3969 -0.475831,0.593455 -0.398795,0.487736 -0.79441,0.974158 -1.162809,1.482253 -0.460463,0.641064 -0.918039,1.224452 -1.509772,1.76702 -0.598791,0.53239 -1.263124,1.070159 -1.657475,1.756436 l -0.103097,0.20886 h -0.253777 l -0.187853,0.246122 c -0.299336,0.463469 -0.58914,0.921915 -0.956122,1.3424 -0.365743,0.399491 -0.687569,0.694395 -0.695902,1.237974 0.06345,0.353311 0.06345,0.353311 0.190332,0.471081 0.793051,0.490712 0.792954,0.490761 4.450749,0.487186 0.222818,-3.17e-4 0.445825,-3.17e-4 0.668641,-3.17e-4 0.474098,3.17e-4 0.948191,4.73e-4 1.422288,0 0.603958,-7.99e-4 1.207913,-0.0011 1.811873,-4.76e-4 2.351391,0.0026 4.702042,-3.17e-4 7.0527,-0.0605 l 0.286737,-0.0074 c 0.185131,-0.0046 0.370254,-0.0091 0.555383,-0.01381 l 0.501605,-0.01473 c 0.253777,-0.0074 0.507493,-0.018 0.760585,-0.03681 0.126888,-0.117772 0.126888,-0.117772 0.222056,-0.338591 0.03172,-0.250263 0.03166,-0.250235 -0.09691,-0.440488 -0.31167,-0.20158 -0.557158,-0.202574 -0.930595,-0.201729 l -0.278063,0.006 c -0.201835,0.0013 -0.403861,0.0026 -0.605693,0.0041 -0.448606,0.0066 -0.897056,0.01182 -1.345709,0.01473 -0.236509,0.0014 -0.473022,0.0031 -0.709533,0.0047 -1.282505,0.01028 -2.564337,0.0051 -3.84679,-0.0088 l -0.337295,-0.0036 c -0.561382,-0.006 -1.122867,-0.01197 -1.684242,-0.0184 -0.572329,-0.0067 -1.144615,-0.01299 -1.716954,-0.01863 -0.459543,-0.0046 -0.919135,-0.0093 -1.37867,-0.01448 -0.217548,-0.0025 -0.434982,-0.005 -0.652533,-0.0074 -0.30653,-0.0028 -0.61317,-0.006 -0.919689,-0.0097 l -0.279303,-0.0034 c -0.496284,-0.0056 -0.952405,-0.0029 -1.427988,-0.14193 0.134086,-0.186676 0.267706,-0.373498 0.398507,-0.56217 l 0.15861,-0.230482 c 0.120956,-0.174961 0.241895,-0.349932 0.362823,-0.524907 0.526966,-0.767524 1.041955,-1.582063 1.75512,-2.214179 0.21506,-0.152747 0.426033,-0.300843 0.624032,-0.472463 l 0.126887,-0.353312 h 0.253776 c 1.312503,-0.867083 2.355648,-2.036924 3.072576,-3.361522 0.379416,-0.703302 0.781403,-1.523494 1.491928,-1.981858 0.253516,-0.09846 0.253516,-0.09848 0.488717,-0.0023 0.437997,0.248855 0.83391,0.429073 1.33877,0.524446 0.633068,0.115312 1.240816,0.283488 1.855738,0.463722 l 0.415855,0.131573 0.432711,0.133411 c 0.895134,0.285561 1.574451,0.17081 2.412855,-0.192067 l 0.243863,-0.109718 c 0.449526,-0.192276 0.870082,-0.388646 1.268385,-0.66522 l 0.301856,-0.240147 c 0.559644,-0.40904 1.117896,-0.817884 1.63765,-1.270633 0.800288,-0.799632 1.087916,-1.748185 1.097384,-2.822355 l -0.007,-0.360211 c -0.01021,-0.942046 -0.06394,-1.779517 -0.42824,-2.66592 L 44.02221,39.593344 c -0.10443,-0.251382 -0.211006,-0.488895 -0.348943,-0.725945 -0.566177,-0.77182 -1.465093,-1.607628 -2.47977,-1.803362 -0.07003,-0.0041 -0.135076,-0.007 -0.196034,-0.0081 z m 0.486984,1.359654 c 0.35933,0.237162 0.654201,0.464855 0.929851,0.78391 0.885567,1.227697 1.338793,2.568298 1.10036,4.044683 -0.578923,1.615759 -1.836352,2.667082 -3.410616,3.446631 l -0.26914,0.130653 c -0.793328,0.397134 -1.399866,0.546018 -2.307777,0.374473 l -0.229985,-0.08004 -0.283022,-0.09661 c -0.196818,-0.06957 -0.393891,-0.138534 -0.592059,-0.20472 -0.179723,-0.05959 -0.359354,-0.119522 -0.53878,-0.179877 l -0.275338,-0.09293 c -0.330561,-0.110033 -0.651081,-0.226966 -0.975453,-0.353312 -0.313511,-0.172993 -0.466821,-0.260268 -0.60371,-0.573212 -0.05739,-0.254721 -0.05729,-0.254723 0.09566,-0.466022 0.28993,-0.323119 0.574304,-0.648194 0.836915,-0.990929 l 0.196528,-0.266365 c 0.131669,-0.176556 0.263183,-0.353213 0.394543,-0.529967 l 0.203219,-0.276486 0.195288,-0.260843 c 0.163707,-0.230433 0.163707,-0.230433 0.3311,-0.404836 h 0.253776 c -0.02087,-0.249428 -0.02087,-0.249428 0.153158,-0.486264 l 0.203719,-0.286601 c 0.191642,-0.285237 0.191642,-0.285237 0.404457,-0.522618 l 0.380665,-0.117771 c 0,-0.396316 0.236118,-0.65612 0.507551,-0.942165 0.742487,-0.586843 2.267277,-1.648788 3.299091,-1.648788 z"
       style="fill:url(#linearGradient866);fill-opacity:1;stroke-width:0.122245" />
    <g
       aria-label="Relay"
       transform="scale(1.0124481,0.98770495)"
       id="text53"
       style="font-style:normal;font-weight:normal;font-size:14.163px;line-height:1.25;font-family:sans-serif;fill:#000000;fill-opacity:1;stroke:none;stroke-width:0.354077">
      <path
         d="M 23.805658,73.22881 H 22.516825 L 19.797529,68.625835 H 19.485943 17.432308 V 73.22881 H 16.341757 V 62.493256 h 3.030882 q 1.926168,0 2.960067,0.807291 1.048062,0.807291 1.048062,2.294406 0,1.147203 -0.637335,1.883679 -0.623172,0.722313 -1.812864,1.005573 z m -4.517997,-5.651037 q 1.430463,0 2.195265,-0.509868 0.764802,-0.524031 0.764802,-1.472952 0,-0.99141 -0.764802,-1.529604 -0.764802,-0.538194 -2.195265,-0.538194 h -1.855353 v 4.050618 z"
         style="font-style:normal;font-variant:normal;font-weight:normal;font-stretch:normal;font-size:14.163px;font-family:MiSans;-inkscape-font-specification:'MiSans, Normal';font-variant-ligatures:normal;font-variant-caps:normal;font-variant-numeric:normal;font-variant-east-asian:normal;stroke-width:0.354077"
         id="path849" />
      <path
         d="m 31.071267,68.909095 q 0,0.453216 -0.08498,0.878106 h -5.410266 q 0.07081,1.218018 0.722313,1.940331 0.665661,0.722313 1.727886,0.722313 0.623172,0 1.161366,-0.297423 0.538194,-0.297423 0.892269,-0.863943 l 0.835617,0.56652 q -0.467379,0.750639 -1.203855,1.161366 -0.722313,0.396564 -1.685397,0.396564 -1.076388,0 -1.883679,-0.467379 -0.793128,-0.481542 -1.218018,-1.359648 -0.42489,-0.892269 -0.42489,-2.081961 0,-1.203855 0.410727,-2.096124 0.410727,-0.892269 1.175529,-1.373811 0.764802,-0.481542 1.798701,-0.481542 1.458789,0 2.322732,0.920595 0.863943,0.906432 0.863943,2.436036 z m -1.076388,-0.07081 q 0,-1.048062 -0.580683,-1.685397 -0.580683,-0.637335 -1.529604,-0.637335 -0.906432,0 -1.515441,0.623172 -0.594846,0.623172 -0.750639,1.69956 z"
         style="font-style:normal;font-variant:normal;font-weight:normal;font-stretch:normal;font-size:14.163px;font-family:MiSans;-inkscape-font-specification:'MiSans, Normal';font-variant-ligatures:normal;font-variant-caps:normal;font-variant-numeric:normal;font-variant-east-asian:normal;stroke-width:0.354077"
         id="path851" />
      <path
         d="m 32.770807,62.493256 h 1.048062 v 9.262602 q 0,0.609009 0.594846,0.609009 h 0.396564 v 0.977247 h -0.623172 q -1.4163,0 -1.4163,-1.302996 z"
         style="font-style:normal;font-variant:normal;font-weight:normal;font-stretch:normal;font-size:14.163px;font-family:MiSans;-inkscape-font-specification:'MiSans, Normal';font-variant-ligatures:normal;font-variant-caps:normal;font-variant-numeric:normal;font-variant-east-asian:normal;stroke-width:0.354077"
         id="path853" />
      <path
         d="m 38.237718,73.427092 q -1.104714,0 -1.742049,-0.552357 -0.637335,-0.56652 -0.637335,-1.501278 0,-2.40771 3.753195,-2.40771 h 1.104714 v -0.679824 q 0,-0.821454 -0.481542,-1.288833 -0.481542,-0.481542 -1.317159,-0.481542 -0.948921,0 -1.912005,0.807291 l -0.623172,-0.722313 q 1.118877,-1.048062 2.591829,-1.048062 1.302996,0 2.053635,0.693987 0.750639,0.693987 0.750639,1.897842 v 5.084517 h -1.062225 v -1.13304 h -0.07081 q -0.339912,0.609009 -1.005573,0.977247 -0.651498,0.354075 -1.402137,0.354075 z m 0.184119,-0.963084 q 0.524031,0 1.048062,-0.226608 0.538194,-0.240771 0.892269,-0.70815 0.354075,-0.481542 0.354075,-1.147203 v -0.453216 h -0.906432 q -1.472952,0 -2.181102,0.339912 -0.693987,0.339912 -0.693987,1.033899 0,0.538194 0.396564,0.84978 0.396564,0.311586 1.090551,0.311586 z"
         style="font-style:normal;font-variant:normal;font-weight:normal;font-stretch:normal;font-size:14.163px;font-family:MiSans;-inkscape-font-specification:'MiSans, Normal';font-variant-ligatures:normal;font-variant-caps:normal;font-variant-numeric:normal;font-variant-east-asian:normal;stroke-width:0.354077"
         id="path855" />
      <path
         d="m 45.687447,73.22881 -2.917578,-7.478064 h 1.189692 l 2.322732,6.160905 h 0.08498 l 2.237754,-6.160905 h 1.189692 L 45.588306,76.62793 h -1.175529 z"
         style="font-style:normal;font-variant:normal;font-weight:normal;font-stretch:normal;font-size:14.163px;font-family:MiSans;-inkscape-font-specification:'MiSans, Normal';font-variant-ligatures:normal;font-variant-caps:normal;font-variant-numeric:normal;font-variant-east-asian:normal;stroke-width:0.354077"
         id="path857" />
    </g>
  </g>
  <!-- 铃铛（右上） -->
  <!-- 转发箭头（右侧） -->
</svg>
